<svg width="595" height="113" viewBox="0 0 595 113" fill="none" xmlns="http://www.w3.org/2000/svg">
<path d="M137.88 96.8L137.44 87.92L149.48 75H158.2L146.2 88L141.8 92.6L137.88 96.8ZM130.8 103V75H138.64V103H130.8ZM149.6 103L140.48 91.44L145.64 85.92L158.8 103H149.6ZM160.878 103V75H167.398L182.838 93.64H179.758V75H187.518V103H180.998L165.558 84.36H168.638V103H160.878ZM207.225 103.56C204.985 103.56 202.918 103.2 201.025 102.48C199.131 101.76 197.478 100.747 196.065 99.44C194.678 98.1067 193.598 96.56 192.825 94.8C192.051 93.04 191.665 91.1067 191.665 89C191.665 86.8933 192.051 84.96 192.825 83.2C193.598 81.44 194.678 79.9067 196.065 78.6C197.478 77.2667 199.131 76.24 201.025 75.52C202.918 74.8 204.985 74.44 207.225 74.44C209.491 74.44 211.558 74.8 213.425 75.52C215.318 76.24 216.958 77.2667 218.345 78.6C219.731 79.9067 220.811 81.44 221.585 83.2C222.385 84.96 222.785 86.8933 222.785 89C222.785 91.1067 222.385 93.0533 221.585 94.84C220.811 96.6 219.731 98.1333 218.345 99.44C216.958 100.747 215.318 101.76 213.425 102.48C211.558 103.2 209.491 103.56 207.225 103.56ZM207.225 97C208.291 97 209.278 96.8133 210.185 96.44C211.118 96.0667 211.918 95.5333 212.585 94.84C213.278 94.12 213.811 93.2667 214.185 92.28C214.585 91.2933 214.785 90.2 214.785 89C214.785 87.7733 214.585 86.68 214.185 85.72C213.811 84.7333 213.278 83.8933 212.585 83.2C211.918 82.48 211.118 81.9333 210.185 81.56C209.278 81.1867 208.291 81 207.225 81C206.158 81 205.158 81.1867 204.225 81.56C203.318 81.9333 202.518 82.48 201.825 83.2C201.158 83.8933 200.625 84.7333 200.225 85.72C199.851 86.68 199.665 87.7733 199.665 89C199.665 90.2 199.851 91.2933 200.225 92.28C200.625 93.2667 201.158 94.12 201.825 94.84C202.518 95.5333 203.318 96.0667 204.225 96.44C205.158 96.8133 206.158 97 207.225 97ZM232.915 103L223.835 75H231.995L239.635 99.24H235.515L243.555 75H250.835L258.435 99.24H254.475L262.355 75H269.915L260.835 103H252.355L245.875 82.4H248.155L241.395 103H232.915ZM272.753 103V75H280.673V96.72H294.033V103H272.753ZM304.447 85.84H317.447V91.76H304.447V85.84ZM305.007 96.88H319.647V103H297.167V75H319.127V81.12H305.007V96.88ZM324.042 103V75H337.282C340.376 75 343.096 75.5733 345.442 76.72C347.789 77.8667 349.616 79.48 350.922 81.56C352.256 83.64 352.922 86.12 352.922 89C352.922 91.8533 352.256 94.3333 350.922 96.44C349.616 98.52 347.789 100.133 345.442 101.28C343.096 102.427 340.376 103 337.282 103H324.042ZM331.962 96.68H336.962C338.562 96.68 339.949 96.3867 341.122 95.8C342.322 95.1867 343.256 94.3067 343.922 93.16C344.589 91.9867 344.922 90.6 344.922 89C344.922 87.3733 344.589 85.9867 343.922 84.84C343.256 83.6933 342.322 82.8267 341.122 82.24C339.949 81.6267 338.562 81.32 336.962 81.32H331.962V96.68ZM371.089 103.56C368.876 103.56 366.822 103.213 364.929 102.52C363.036 101.8 361.396 100.787 360.009 99.48C358.649 98.1733 357.582 96.64 356.809 94.88C356.036 93.0933 355.649 91.1333 355.649 89C355.649 86.8667 356.036 84.92 356.809 83.16C357.582 81.3733 358.662 79.8267 360.049 78.52C361.436 77.2133 363.076 76.2133 364.969 75.52C366.889 74.8 368.982 74.44 371.249 74.44C373.889 74.44 376.249 74.88 378.329 75.76C380.409 76.64 382.129 77.9067 383.489 79.56L378.449 84.12C377.489 83.08 376.449 82.3067 375.329 81.8C374.236 81.2667 373.009 81 371.649 81C370.449 81 369.356 81.1867 368.369 81.56C367.382 81.9333 366.542 82.48 365.849 83.2C365.156 83.8933 364.609 84.7333 364.209 85.72C363.836 86.68 363.649 87.7733 363.649 89C363.649 90.1733 363.836 91.2533 364.209 92.24C364.609 93.2267 365.156 94.08 365.849 94.8C366.542 95.4933 367.369 96.04 368.329 96.44C369.316 96.8133 370.396 97 371.569 97C372.742 97 373.889 96.8133 375.009 96.44C376.129 96.04 377.262 95.3733 378.409 94.44L382.849 100C381.249 101.147 379.396 102.027 377.289 102.64C375.182 103.253 373.116 103.56 371.089 103.56ZM375.849 98.96V88.4H382.849V100L375.849 98.96ZM395.15 85.84H408.15V91.76H395.15V85.84ZM395.71 96.88H410.35V103H387.87V75H409.83V81.12H395.71V96.88ZM436.226 103.56C433.933 103.56 431.719 103.28 429.586 102.72C427.479 102.133 425.759 101.387 424.426 100.48L427.026 94.64C428.279 95.44 429.719 96.1067 431.346 96.64C432.999 97.1467 434.639 97.4 436.266 97.4C437.359 97.4 438.239 97.3067 438.906 97.12C439.573 96.9067 440.053 96.64 440.346 96.32C440.666 95.9733 440.826 95.5733 440.826 95.12C440.826 94.48 440.533 93.9733 439.946 93.6C439.359 93.2267 438.599 92.92 437.666 92.68C436.733 92.44 435.693 92.2 434.546 91.96C433.426 91.72 432.293 91.4133 431.146 91.04C430.026 90.6667 428.999 90.1867 428.066 89.6C427.133 88.9867 426.373 88.2 425.786 87.24C425.199 86.2533 424.906 85.0133 424.906 83.52C424.906 81.84 425.359 80.32 426.266 78.96C427.199 77.6 428.586 76.5067 430.426 75.68C432.266 74.8533 434.559 74.44 437.306 74.44C439.146 74.44 440.946 74.6533 442.706 75.08C444.493 75.48 446.079 76.08 447.466 76.88L445.026 82.76C443.693 82.04 442.373 81.5067 441.066 81.16C439.759 80.7867 438.493 80.6 437.266 80.6C436.173 80.6 435.293 80.72 434.626 80.96C433.959 81.1733 433.479 81.4667 433.186 81.84C432.893 82.2133 432.746 82.64 432.746 83.12C432.746 83.7333 433.026 84.2267 433.586 84.6C434.173 84.9467 434.933 85.24 435.866 85.48C436.826 85.6933 437.866 85.92 438.986 86.16C440.133 86.4 441.266 86.7067 442.386 87.08C443.533 87.4267 444.573 87.9067 445.506 88.52C446.439 89.1067 447.186 89.8933 447.746 90.88C448.333 91.84 448.626 93.0533 448.626 94.52C448.626 96.1467 448.159 97.6533 447.226 99.04C446.319 100.4 444.946 101.493 443.106 102.32C441.293 103.147 438.999 103.56 436.226 103.56ZM452.284 103V75H465.084C467.644 75 469.844 75.4133 471.684 76.24C473.551 77.0667 474.991 78.2667 476.004 79.84C477.018 81.3867 477.524 83.2267 477.524 85.36C477.524 87.4667 477.018 89.2933 476.004 90.84C474.991 92.3867 473.551 93.5867 471.684 94.44C469.844 95.2667 467.644 95.68 465.084 95.68H456.684L460.204 92.24V103H452.284ZM460.204 93.08L456.684 89.44H464.604C466.258 89.44 467.484 89.08 468.284 88.36C469.111 87.64 469.524 86.64 469.524 85.36C469.524 84.0533 469.111 83.04 468.284 82.32C467.484 81.6 466.258 81.24 464.604 81.24H456.684L460.204 77.6V93.08ZM500.106 75H508.026V103H500.106V75ZM489.306 103H481.386V75H489.306V103ZM500.666 92.08H488.746V85.52H500.666V92.08ZM520.893 85.84H533.893V91.76H520.893V85.84ZM521.453 96.88H536.093V103H513.613V75H535.573V81.12H521.453V96.88ZM540.488 103V75H553.288C555.848 75 558.048 75.4133 559.888 76.24C561.754 77.0667 563.194 78.2667 564.208 79.84C565.221 81.3867 565.728 83.2267 565.728 85.36C565.728 87.4667 565.221 89.2933 564.208 90.84C563.194 92.36 561.754 93.5333 559.888 94.36C558.048 95.16 555.848 95.56 553.288 95.56H544.888L548.408 92.24V103H540.488ZM557.808 103L550.848 92.8H559.288L566.288 103H557.808ZM548.408 93.08L544.888 89.44H552.808C554.461 89.44 555.688 89.08 556.488 88.36C557.314 87.64 557.728 86.64 557.728 85.36C557.728 84.0533 557.314 83.04 556.488 82.32C555.688 81.6 554.461 81.24 552.808 81.24H544.888L548.408 77.6V93.08ZM577.377 85.84H590.377V91.76H577.377V85.84ZM577.937 96.88H592.577V103H570.097V75H592.057V81.12H577.937V96.88Z" fill="#333333"/>
<g clip-path="url(#clip0_187_953)">
<path d="M56.8213 110.46C52.3713 110.546 48.0411 110.098 43.8866 109.175C36.8497 107.611 29.693 106.681 22.4885 106.681H8.5637C6.42921 106.681 4.69926 104.937 4.69926 102.788V88.7491C4.69926 81.4869 3.77573 74.273 2.2241 67.1798C1.30856 62.9921 0.8641 58.6273 0.949267 54.1417C1.53745 23.588 26.2784 -0.460115 56.5897 0.00668196C63.5627 0.113992 70.2217 1.53585 76.3324 4.03616C78.0091 4.72026 79.6406 5.48752 81.2295 6.3299C88.9424 10.4211 95.5694 16.3151 100.56 23.4538C100.714 23.6765 100.868 23.8992 101.02 24.1245C106.875 32.7656 110.359 43.1666 110.527 54.3751C110.99 84.9315 87.1326 109.868 56.8213 110.46Z" fill="#001A33"/>
<path d="M100.56 23.4538H85.7807C80.5642 23.4538 76.3325 19.1936 76.3325 13.9328V4.03613C78.0092 4.72023 79.6407 5.48749 81.2296 6.32988C88.9425 10.4211 95.5695 16.315 100.56 23.4538Z" fill="#00AAE7"/>
<path d="M170.258 34.6774C170.258 33.159 169.915 32.0537 169.3 31.4313C168.616 30.7418 167.724 30.4655 166.697 30.4655C165.257 30.4655 163.751 31.0879 162.585 32.0537V53.9476H149.02V34.6774C149.02 33.159 148.676 32.0537 148.062 31.4313C147.378 30.7418 146.486 30.4655 145.459 30.4655C144.019 30.4655 142.443 31.0879 141.347 32.1235V53.9476H127.781V19.968H141.073V22.4549L141.208 22.5246C143.606 20.7969 146.757 19.2087 150.664 19.2087C154.09 19.2087 158.133 20.5206 160.256 23.5601C164.368 20.3838 168.068 19.2087 171.906 19.2087C175.743 19.2087 178.69 20.5904 180.609 22.4549C182.732 24.5957 183.829 27.6352 183.829 32.6063V53.9476H170.263V34.6774H170.258Z" fill="#001A33"/>
<path d="M197.666 1.52686C201.639 1.52686 204.79 4.70322 204.79 8.64149C204.79 12.5797 201.639 15.7561 197.666 15.7561C193.692 15.7561 190.541 12.5797 190.541 8.64149C190.541 4.70322 193.692 1.52686 197.666 1.52686ZM190.882 19.968H204.447V53.9476H190.882V19.968Z" fill="#001A33"/>
<path d="M211.644 19.9681H224.935V23.6274L225.071 23.6971C227.264 21.1405 230.346 19.3457 234.048 19.3457C234.939 19.3457 235.897 19.4825 236.515 19.622V32.1934C235.283 31.917 233.912 31.7802 232.815 31.7802C229.938 31.7802 227.471 32.4724 225.209 34.6132V53.9504H211.644V19.9708V19.9681Z" fill="#001A33"/>
<path d="M262.893 52.2199C260.838 53.8778 257.892 54.7068 254.946 54.7068C246.724 54.7068 239.392 48.0777 239.392 37.7867C239.392 26.9431 247.478 19.2087 257.482 19.2087C260.359 19.2087 263.374 19.8311 265.911 21.2127L276.325 19.418V53.9502H263.031V52.362L262.895 52.2226L262.893 52.2199ZM262.757 30.7392C261.799 30.326 260.702 30.0497 259.398 30.0497C254.946 30.0497 253.096 33.3656 253.096 37.1643C253.096 40.9631 255.084 44.0724 259.058 44.0724C260.428 44.0724 261.73 43.7263 262.757 43.2434V30.7418V30.7392Z" fill="#001A33"/>
<path d="M326.89 51.1174C322.299 53.3279 316.202 54.7095 310.24 54.7095C293.385 54.7095 282.148 43.7961 282.148 29.2235C282.148 14.6508 293.864 3.18481 309.966 3.18481C315.789 3.18481 321.133 4.63617 325.245 6.70725V20.4509C320.859 17.7575 315.515 15.8232 310.514 15.8232C301.676 15.8232 296.262 21.693 296.262 29.2208C296.262 36.7486 301.537 42.6882 310.24 42.6882C311.267 42.6882 312.502 42.5514 313.256 42.3421V37.0249H306.472V26.5971H326.89V51.1147V51.1174Z" fill="#00AAE7"/>
<path d="M334.358 3.94409H350.46C356.901 3.94409 361.697 4.70331 365.396 6.56781C370.536 9.12446 374.03 13.6824 374.03 20.6576C374.03 26.4577 371.563 30.9486 366.631 33.8486C362.793 36.1289 357.518 37.2342 350.734 37.2342H348.472V53.9477H334.358V3.94409ZM351.008 26.4603C354.09 26.4603 356.217 26.184 357.38 25.5616C359.025 24.7327 359.916 23.1445 359.916 20.9339C359.916 18.7233 358.958 16.9983 357.175 16.1693C355.874 15.5469 354.16 15.2706 350.599 15.2706H348.475V26.4603H351.011H351.008Z" fill="#00AAE7"/>
<path d="M391.777 15.9628H376.018V3.94409H421.651V15.9628H405.893V53.9504H391.779V15.9628H391.777Z" fill="#00AAE7"/>
<path d="M74.9408 30.6918H66.7036C66.166 30.6918 65.7694 30.8904 65.4287 31.3196C62.4 35.0567 59.3154 38.7964 56.3132 42.563C55.8315 43.1907 55.6053 43.1612 55.1236 42.563C52.1507 38.7964 49.0954 35.0862 46.0932 31.3491C45.6967 30.8635 45.3001 30.665 44.6773 30.6918C42.0452 30.7213 39.413 30.6918 36.7808 30.6918C35.5059 30.6918 35.1387 31.0916 35.1387 32.3766V65.1329C35.1387 66.4447 35.5059 66.8176 36.7808 66.8176H44.9328C46.2343 66.8176 46.6042 66.4474 46.6042 65.1624V49.412C46.6042 49.1276 46.5191 48.8138 46.6894 48.4999C46.9715 48.6152 47.086 48.8701 47.2563 49.0713C49.5771 51.9257 51.8979 54.807 54.2479 57.6587C55.1262 58.7157 56.0311 58.6862 56.9094 57.6587C57.8143 56.5749 58.6926 55.4911 59.5709 54.3778C61.1571 52.4086 62.7699 50.4395 64.3562 48.4999L64.5531 48.5562V65.2777C64.5531 66.4179 64.9789 66.8176 66.0808 66.8471H74.8849C75.9042 66.8471 76.3274 66.3911 76.3274 65.3636V32.1781C76.3833 31.1801 75.9601 30.724 74.9408 30.6945" fill="white"/>
<path d="M74.1208 79.5954H37.2011C35.8544 79.5954 34.7632 78.4955 34.7632 77.1381C34.7632 75.7806 35.8544 74.6807 37.2011 74.6807H74.1208C75.4675 74.6807 76.5587 75.7806 76.5587 77.1381C76.5587 78.4955 75.4675 79.5954 74.1208 79.5954Z" fill="#00AAE7"/>
<path d="M55.7357 89.8865H37.1986C35.8519 89.8865 34.7607 88.7865 34.7607 87.4291C34.7607 86.0716 35.8519 84.9717 37.1986 84.9717H55.7357C57.0824 84.9717 58.1736 86.0716 58.1736 87.4291C58.1736 88.7865 57.0824 89.8865 55.7357 89.8865Z" fill="#00AAE7"/>
</g>
<defs>
<clipPath id="clip0_187_953">
<rect width="422" height="111" fill="white"/>
</clipPath>
</defs>
</svg>
